<mxfile host="app.diagrams.net" modified="2022-03-01T13:27:36.042Z" agent="5.0 (Windows NT 10.0; Win64; x64) AppleWebKit/537.36 (KHTML, like Gecko) Chrome/98.0.4758.102 Safari/537.36" etag="ccyUOG23ktIY-3HbIchY" version="16.6.4" type="github">
  <diagram id="C5RBs43oDa-KdzZeNtuy" name="Page-1">
    <mxGraphModel dx="2249" dy="793" grid="1" gridSize="10" guides="1" tooltips="1" connect="1" arrows="1" fold="1" page="1" pageScale="1" pageWidth="827" pageHeight="1169" math="0" shadow="0">
      <root>
        <mxCell id="WIyWlLk6GJQsqaUBKTNV-0" />
        <mxCell id="WIyWlLk6GJQsqaUBKTNV-1" parent="WIyWlLk6GJQsqaUBKTNV-0" />
        <mxCell id="WIyWlLk6GJQsqaUBKTNV-2" value="" style="rounded=0;html=1;jettySize=auto;orthogonalLoop=1;fontSize=11;endArrow=block;endFill=0;endSize=8;strokeWidth=1;shadow=0;labelBackgroundColor=none;edgeStyle=orthogonalEdgeStyle;" parent="WIyWlLk6GJQsqaUBKTNV-1" source="WIyWlLk6GJQsqaUBKTNV-3" edge="1">
          <mxGeometry relative="1" as="geometry">
            <mxPoint x="220" y="170" as="targetPoint" />
          </mxGeometry>
        </mxCell>
        <mxCell id="WIyWlLk6GJQsqaUBKTNV-3" value="Start" style="rounded=1;whiteSpace=wrap;html=1;fontSize=12;glass=0;strokeWidth=1;shadow=0;" parent="WIyWlLk6GJQsqaUBKTNV-1" vertex="1">
          <mxGeometry x="160" y="80" width="120" height="40" as="geometry" />
        </mxCell>
        <mxCell id="N0GJ9jmYPesDAW3sTEzD-3" style="edgeStyle=orthogonalEdgeStyle;rounded=0;orthogonalLoop=1;jettySize=auto;html=1;" edge="1" parent="WIyWlLk6GJQsqaUBKTNV-1" source="N0GJ9jmYPesDAW3sTEzD-2" target="N0GJ9jmYPesDAW3sTEzD-4">
          <mxGeometry relative="1" as="geometry">
            <mxPoint x="220" y="280" as="targetPoint" />
          </mxGeometry>
        </mxCell>
        <mxCell id="N0GJ9jmYPesDAW3sTEzD-2" value="Indtast password" style="rounded=0;whiteSpace=wrap;html=1;" vertex="1" parent="WIyWlLk6GJQsqaUBKTNV-1">
          <mxGeometry x="160" y="170" width="120" height="60" as="geometry" />
        </mxCell>
        <mxCell id="N0GJ9jmYPesDAW3sTEzD-5" style="edgeStyle=orthogonalEdgeStyle;rounded=0;orthogonalLoop=1;jettySize=auto;html=1;" edge="1" parent="WIyWlLk6GJQsqaUBKTNV-1" source="N0GJ9jmYPesDAW3sTEzD-4" target="N0GJ9jmYPesDAW3sTEzD-6">
          <mxGeometry relative="1" as="geometry">
            <mxPoint x="220" y="360" as="targetPoint" />
          </mxGeometry>
        </mxCell>
        <mxCell id="N0GJ9jmYPesDAW3sTEzD-4" value="Load XML fil" style="rounded=0;whiteSpace=wrap;html=1;" vertex="1" parent="WIyWlLk6GJQsqaUBKTNV-1">
          <mxGeometry x="160" y="260" width="120" height="60" as="geometry" />
        </mxCell>
        <mxCell id="N0GJ9jmYPesDAW3sTEzD-7" style="edgeStyle=orthogonalEdgeStyle;rounded=0;orthogonalLoop=1;jettySize=auto;html=1;" edge="1" parent="WIyWlLk6GJQsqaUBKTNV-1" source="N0GJ9jmYPesDAW3sTEzD-6" target="N0GJ9jmYPesDAW3sTEzD-8">
          <mxGeometry relative="1" as="geometry">
            <mxPoint x="220" y="460" as="targetPoint" />
          </mxGeometry>
        </mxCell>
        <mxCell id="N0GJ9jmYPesDAW3sTEzD-6" value="Dekrypter fil" style="rounded=0;whiteSpace=wrap;html=1;" vertex="1" parent="WIyWlLk6GJQsqaUBKTNV-1">
          <mxGeometry x="160" y="360" width="120" height="60" as="geometry" />
        </mxCell>
        <mxCell id="N0GJ9jmYPesDAW3sTEzD-10" style="edgeStyle=orthogonalEdgeStyle;rounded=0;orthogonalLoop=1;jettySize=auto;html=1;" edge="1" parent="WIyWlLk6GJQsqaUBKTNV-1" source="N0GJ9jmYPesDAW3sTEzD-8" target="N0GJ9jmYPesDAW3sTEzD-9">
          <mxGeometry relative="1" as="geometry" />
        </mxCell>
        <mxCell id="N0GJ9jmYPesDAW3sTEzD-8" value="Vis dekrypterede passwords" style="rounded=0;whiteSpace=wrap;html=1;" vertex="1" parent="WIyWlLk6GJQsqaUBKTNV-1">
          <mxGeometry x="160" y="450" width="120" height="60" as="geometry" />
        </mxCell>
        <mxCell id="N0GJ9jmYPesDAW3sTEzD-11" style="edgeStyle=orthogonalEdgeStyle;rounded=0;orthogonalLoop=1;jettySize=auto;html=1;" edge="1" parent="WIyWlLk6GJQsqaUBKTNV-1" source="N0GJ9jmYPesDAW3sTEzD-9">
          <mxGeometry relative="1" as="geometry">
            <mxPoint x="80" y="585" as="targetPoint" />
          </mxGeometry>
        </mxCell>
        <mxCell id="N0GJ9jmYPesDAW3sTEzD-24" value="" style="edgeStyle=orthogonalEdgeStyle;rounded=0;orthogonalLoop=1;jettySize=auto;html=1;" edge="1" parent="WIyWlLk6GJQsqaUBKTNV-1" source="N0GJ9jmYPesDAW3sTEzD-9" target="N0GJ9jmYPesDAW3sTEzD-23">
          <mxGeometry relative="1" as="geometry" />
        </mxCell>
        <mxCell id="N0GJ9jmYPesDAW3sTEzD-9" value="Opret ny bruger" style="rhombus;whiteSpace=wrap;html=1;" vertex="1" parent="WIyWlLk6GJQsqaUBKTNV-1">
          <mxGeometry x="115" y="545" width="210" height="80" as="geometry" />
        </mxCell>
        <mxCell id="N0GJ9jmYPesDAW3sTEzD-14" style="edgeStyle=orthogonalEdgeStyle;rounded=0;orthogonalLoop=1;jettySize=auto;html=1;" edge="1" parent="WIyWlLk6GJQsqaUBKTNV-1" source="N0GJ9jmYPesDAW3sTEzD-13" target="N0GJ9jmYPesDAW3sTEzD-15">
          <mxGeometry relative="1" as="geometry">
            <mxPoint x="20" y="660" as="targetPoint" />
          </mxGeometry>
        </mxCell>
        <mxCell id="N0GJ9jmYPesDAW3sTEzD-13" value="Ja" style="rounded=0;whiteSpace=wrap;html=1;" vertex="1" parent="WIyWlLk6GJQsqaUBKTNV-1">
          <mxGeometry x="-40" y="555" width="120" height="60" as="geometry" />
        </mxCell>
        <mxCell id="N0GJ9jmYPesDAW3sTEzD-17" style="edgeStyle=orthogonalEdgeStyle;rounded=0;orthogonalLoop=1;jettySize=auto;html=1;" edge="1" parent="WIyWlLk6GJQsqaUBKTNV-1" source="N0GJ9jmYPesDAW3sTEzD-15" target="N0GJ9jmYPesDAW3sTEzD-18">
          <mxGeometry relative="1" as="geometry">
            <mxPoint x="20" y="760" as="targetPoint" />
          </mxGeometry>
        </mxCell>
        <mxCell id="N0GJ9jmYPesDAW3sTEzD-15" value="Opret ny ID i XML filen&amp;nbsp;" style="rounded=0;whiteSpace=wrap;html=1;" vertex="1" parent="WIyWlLk6GJQsqaUBKTNV-1">
          <mxGeometry x="-40" y="650" width="120" height="60" as="geometry" />
        </mxCell>
        <mxCell id="N0GJ9jmYPesDAW3sTEzD-19" style="edgeStyle=orthogonalEdgeStyle;rounded=0;orthogonalLoop=1;jettySize=auto;html=1;" edge="1" parent="WIyWlLk6GJQsqaUBKTNV-1" source="N0GJ9jmYPesDAW3sTEzD-18" target="N0GJ9jmYPesDAW3sTEzD-20">
          <mxGeometry relative="1" as="geometry">
            <mxPoint x="20" y="850" as="targetPoint" />
          </mxGeometry>
        </mxCell>
        <mxCell id="N0GJ9jmYPesDAW3sTEzD-18" value="Indtast Brugernavn og password" style="rounded=0;whiteSpace=wrap;html=1;" vertex="1" parent="WIyWlLk6GJQsqaUBKTNV-1">
          <mxGeometry x="-40" y="750" width="120" height="60" as="geometry" />
        </mxCell>
        <mxCell id="N0GJ9jmYPesDAW3sTEzD-20" value="Krypter data og gem i XML fil" style="rounded=0;whiteSpace=wrap;html=1;" vertex="1" parent="WIyWlLk6GJQsqaUBKTNV-1">
          <mxGeometry x="-40" y="850" width="120" height="60" as="geometry" />
        </mxCell>
        <mxCell id="N0GJ9jmYPesDAW3sTEzD-23" value="Nej" style="whiteSpace=wrap;html=1;" vertex="1" parent="WIyWlLk6GJQsqaUBKTNV-1">
          <mxGeometry x="360" y="555" width="120" height="60" as="geometry" />
        </mxCell>
      </root>
    </mxGraphModel>
  </diagram>
</mxfile>
